<svg xmlns="http://www.w3.org/2000/svg" viewBox="0 0 1680 1260">
  <defs>
    <marker id="arrow" markerWidth="12" markerHeight="12" refX="9" refY="4"
            orient="auto" markerUnits="strokeWidth"><path d="M0 0 L10 4 L0 8 z"/></marker>
    <marker id="arrow-white" markerWidth="12" markerHeight="12" refX="9" refY="4"
            orient="auto" markerUnits="strokeWidth"><path d="M0 0 L10 4 L0 8 z"/></marker>
  </defs>

  <!-- Canvas background -->
  <rect width="1680" height="1260" fill="#F5F4EF"/>

  <!-- ============================================================ -->
  <!-- SECTION 1: HEADER -->
  <!-- ============================================================ -->
  <rect x="24" y="24" width="1632" height="108" fill="#0A0A0A"/>
  <text x="56" y="68" font-size="40" font-weight="bold" fill="#E6FF3D">XEngineer</text>
  <text x="56" y="104" font-size="18" fill="#F5F4EF">AI 小说转 YAML 剧本工作台 — 代码架构全景图</text>
  <text x="1600" y="68" font-size="14" fill="#8A8A85" text-anchor="end">v0.25 · 2026-06-05</text>

  <!-- ============================================================ -->
  <!-- SECTION 2: ROW 1 — 3 columns -->
  <!-- ============================================================ -->

  <!-- COL A: Top-Level Directory + Tech Stack -->
  <rect x="24" y="156" width="380" height="460" fill="#ECECE8"/>
  <rect x="24" y="156" width="380" height="42" fill="#0A0A0A"/>
  <text x="44" y="182" font-size="18" font-weight="bold" fill="#E6FF3D">顶层目录结构</text>

  <!-- Directory entries as rows -->
  <rect x="36" y="210" width="356" height="32" fill="#F5F4EF"/>
  <text x="48" y="231" font-size="15" font-weight="bold" fill="#0A0A0A">backend/</text>
  <text x="130" y="231" font-size="13" fill="#8A8A85">FastAPI + Pydantic v2 后端</text>

  <rect x="36" y="248" width="356" height="32" fill="#F5F4EF"/>
  <text x="48" y="269" font-size="15" font-weight="bold" fill="#0A0A0A">frontend/</text>
  <text x="130" y="269" font-size="13" fill="#8A8A85">Streamlit 前端界面</text>

  <rect x="36" y="286" width="356" height="32" fill="#F5F4EF"/>
  <text x="48" y="307" font-size="15" font-weight="bold" fill="#0A0A0A">docs/</text>
  <text x="130" y="307" font-size="13" fill="#8A8A85">架构计划 + API合约 + 规范</text>

  <rect x="36" y="324" width="356" height="32" fill="#F5F4EF"/>
  <text x="48" y="345" font-size="15" font-weight="bold" fill="#0A0A0A">fixtures/</text>
  <text x="130" y="345" font-size="13" fill="#8A8A85">测试/演示数据 (JSON+YAML)</text>

  <rect x="36" y="362" width="356" height="32" fill="#F5F4EF"/>
  <text x="48" y="383" font-size="15" font-weight="bold" fill="#0A0A0A">schemas/</text>
  <text x="130" y="383" font-size="13" fill="#8A8A85">JSON Schema 定义</text>

  <rect x="36" y="400" width="356" height="32" fill="#F5F4EF"/>
  <text x="48" y="421" font-size="15" font-weight="bold" fill="#0A0A0A">scripts/</text>
  <text x="130" y="421" font-size="13" fill="#8A8A85">验证 &amp; 冒烟测试脚本</text>

  <rect x="36" y="438" width="356" height="32" fill="#F5F4EF"/>
  <text x="48" y="459" font-size="15" font-weight="bold" fill="#0A0A0A">research/</text>
  <text x="130" y="459" font-size="13" fill="#8A8A85">基准案例 &amp; 改编研究</text>

  <rect x="36" y="476" width="356" height="32" fill="#F5F4EF"/>
  <text x="48" y="497" font-size="15" font-weight="bold" fill="#0A0A0A">Pre-research/</text>
  <text x="130" y="497" font-size="13" fill="#8A8A85">竞品调研 &amp; 可行性分析</text>

  <!-- Tech Stack subsection -->
  <rect x="24" y="524" width="380" height="42" fill="#0A0A0A"/>
  <text x="44" y="550" font-size="18" font-weight="bold" fill="#E6FF3D">技术栈</text>

  <rect x="36" y="576" width="170" height="30" fill="#F5F4EF"/>
  <text x="48" y="596" font-size="14" font-weight="bold" fill="#0A0A0A">Python 3.11+</text>

  <rect x="214" y="576" width="178" height="30" fill="#F5F4EF"/>
  <text x="224" y="596" font-size="14" font-weight="bold" fill="#0A0A0A">FastAPI 0.111+</text>

  <rect x="36" y="612" width="170" height="30" fill="#F5F4EF"/>
  <text x="48" y="632" font-size="14" font-weight="bold" fill="#0A0A0A">Pydantic v2</text>

  <rect x="214" y="612" width="178" height="30" fill="#F5F4EF"/>
  <text x="224" y="632" font-size="14" font-weight="bold" fill="#0A0A0A">Streamlit</text>

  <!-- ============================================================ -->
  <!-- COL B: Backend Layered Architecture -->
  <!-- ============================================================ -->
  <rect x="428" y="156" width="726" height="460" fill="#ECECE8"/>
  <rect x="428" y="156" width="726" height="42" fill="#0A0A0A"/>
  <text x="454" y="182" font-size="18" font-weight="bold" fill="#E6FF3D">后端分层架构 (backend/app/)</text>

  <!-- Layer 1: API Layer -->
  <rect x="448" y="212" width="686" height="52" fill="#F5F4EF"/>
  <rect x="448" y="212" width="6" height="52" fill="#E6FF3D"/>
  <text x="464" y="234" font-size="16" font-weight="bold" fill="#0A0A0A">API 层</text>
  <text x="540" y="234" font-size="13" fill="#8A8A85">路由 + DTOs</text>
  <text x="464" y="254" font-size="13" fill="#8A8A85">health · projects · chapters · generation · artifacts · yaml · schema · jobs</text>

  <!-- Arrow Layer 1 → Layer 2 -->
  <line x1="791" y1="264" x2="791" y2="284" stroke="#0A0A0A" stroke-width="3" marker-end="url(#arrow)"/>

  <!-- Layer 2: Service Layer -->
  <rect x="448" y="288" width="686" height="40" fill="#F5F4EF"/>
  <rect x="448" y="288" width="6" height="40" fill="#E6FF3D"/>
  <text x="464" y="314" font-size="16" font-weight="bold" fill="#0A0A0A">Service 层</text>
  <text x="570" y="314" font-size="13" fill="#8A8A85">GenerationOrchestrator · ChapterService · ValidationService · YamlService</text>

  <!-- Arrow from Service to 3 sub-layers -->
  <line x1="520" y1="328" x2="520" y2="348" stroke="#0A0A0A" stroke-width="3" marker-end="url(#arrow)"/>
  <line x1="791" y1="328" x2="791" y2="348" stroke="#0A0A0A" stroke-width="3" marker-end="url(#arrow)"/>
  <line x1="1060" y1="328" x2="1060" y2="348" stroke="#0A0A0A" stroke-width="3" marker-end="url(#arrow)"/>

  <!-- Sub-layer A: AI Layer -->
  <rect x="448" y="352" width="230" height="112" fill="#0A0A0A"/>
  <text x="464" y="376" font-size="15" font-weight="bold" fill="#E6FF3D">AI 层</text>
  <text x="464" y="398" font-size="13" fill="#F5F4EF">Providers</text>
  <text x="464" y="416" font-size="12" fill="#8A8A85">AiProvider · Fake · OpenAI</text>
  <text x="464" y="434" font-size="13" fill="#F5F4EF">Skills</text>
  <text x="464" y="450" font-size="11" fill="#8A8A85">NovelReader · StoryOntology</text>
  <text x="464" y="462" font-size="11" fill="#8A8A85">AdaptationPlanner · ScreenplayWriter</text>

  <!-- Sub-layer B: Validators -->
  <rect x="690" y="352" width="230" height="112" fill="#F5F4EF"/>
  <rect x="690" y="352" width="6" height="112" fill="#E6FF3D"/>
  <text x="706" y="376" font-size="15" font-weight="bold" fill="#0A0A0A">Validators 层</text>
  <text x="706" y="398" font-size="13" fill="#8A8A85">确定性规则检查 (无 LLM)</text>
  <text x="706" y="420" font-size="12" fill="#8A8A85">Chapter · Schema ·</text>
  <text x="706" y="438" font-size="12" fill="#8A8A85">Reference · Audit</text>

  <!-- Sub-layer C: Exporters -->
  <rect x="932" y="352" width="202" height="112" fill="#F5F4EF"/>
  <rect x="932" y="352" width="6" height="112" fill="#E6FF3D"/>
  <text x="948" y="376" font-size="15" font-weight="bold" fill="#0A0A0A">Exporters 层</text>
  <text x="948" y="398" font-size="13" fill="#8A8A85">序列化/导出</text>
  <text x="948" y="420" font-size="12" fill="#8A8A85">YAML ↔ Pydantic</text>
  <text x="948" y="438" font-size="12" fill="#8A8A85">JSON Schema 读取</text>

  <!-- Arrow from sub-layers to Repositories -->
  <line x1="563" y1="464" x2="563" y2="478" stroke="#0A0A0A" stroke-width="3" marker-end="url(#arrow)"/>
  <line x1="805" y1="464" x2="805" y2="478" stroke="#0A0A0A" stroke-width="3" marker-end="url(#arrow)"/>
  <line x1="1033" y1="464" x2="1033" y2="478" stroke="#0A0A0A" stroke-width="3" marker-end="url(#arrow)"/>

  <!-- Layer 4: Repository Layer -->
  <rect x="448" y="478" width="686" height="38" fill="#F5F4EF"/>
  <rect x="448" y="478" width="6" height="38" fill="#E6FF3D"/>
  <text x="464" y="502" font-size="16" font-weight="bold" fill="#0A0A0A">Repository 层</text>
  <text x="590" y="502" font-size="13" fill="#8A8A85">Project · Chapter · Artifact · Job · LlmRun (内存 Stub)</text>

  <!-- Arrow to DB -->
  <line x1="791" y1="516" x2="791" y2="536" stroke="#0A0A0A" stroke-width="3" marker-end="url(#arrow)"/>

  <!-- Layer 5: Database -->
  <rect x="448" y="540" width="686" height="38" fill="#0A0A0A"/>
  <text x="464" y="564" font-size="16" font-weight="bold" fill="#E6FF3D">Database 层</text>
  <text x="590" y="564" font-size="13" fill="#F5F4EF">SQLite (session.py + tables.py DDL)</text>

  <!-- Domain Models cross-cutting indicator -->
  <rect x="448" y="590" width="686" height="22" fill="#E6FF3D"/>
  <text x="464" y="606" font-size="13" font-weight="bold" fill="#0A0A0A">← 贯穿全部层: Domain Models (纯 Pydantic, 零基础设施依赖) — Screenplay 聚合根 →</text>

  <!-- ============================================================ -->
  <!-- COL C: Frontend Architecture -->
  <!-- ============================================================ -->
  <rect x="1178" y="156" width="478" height="460" fill="#ECECE8"/>
  <rect x="1178" y="156" width="478" height="42" fill="#0A0A0A"/>
  <text x="1200" y="182" font-size="18" font-weight="bold" fill="#E6FF3D">前端架构 (frontend/)</text>

  <!-- Entry point -->
  <rect x="1198" y="212" width="438" height="36" fill="#0A0A0A"/>
  <text x="1214" y="236" font-size="15" font-weight="bold" fill="#E6FF3D">app.py — 入口 &amp; 页面配置</text>

  <line x1="1417" y1="248" x2="1417" y2="266" stroke="#0A0A0A" stroke-width="3" marker-end="url(#arrow)"/>

  <!-- Home page -->
  <rect x="1198" y="270" width="438" height="52" fill="#F5F4EF"/>
  <rect x="1198" y="270" width="6" height="52" fill="#E6FF3D"/>
  <text x="1214" y="292" font-size="15" font-weight="bold" fill="#0A0A0A">views/home.py — 项目列表</text>
  <text x="1214" y="312" font-size="12" fill="#8A8A85">卡片网格 · 新建项目 · 删除确认</text>

  <line x1="1417" y1="322" x2="1417" y2="340" stroke="#0A0A0A" stroke-width="3"/>

  <!-- Editor -->
  <rect x="1198" y="344" width="438" height="132" fill="#F5F4EF"/>
  <rect x="1198" y="344" width="6" height="132" fill="#E6FF3D"/>
  <text x="1214" y="366" font-size="15" font-weight="bold" fill="#0A0A0A">views/editor.py — 项目编辑</text>
  <text x="1214" y="386" font-size="12" fill="#8A8A85">侧边栏导航 + 5 个 Tab:</text>
  <rect x="1224" y="396" width="80" height="22" fill="#ECECE8"/>
  <text x="1228" y="412" font-size="12" fill="#0A0A0A">original</text>
  <rect x="1310" y="396" width="90" height="22" fill="#ECECE8"/>
  <text x="1314" y="412" font-size="12" fill="#0A0A0A">characters</text>
  <rect x="1406" y="396" width="62" height="22" fill="#ECECE8"/>
  <text x="1410" y="412" font-size="12" fill="#0A0A0A">scenes</text>
  <rect x="1224" y="424" width="62" height="22" fill="#ECECE8"/>
  <text x="1228" y="440" font-size="12" fill="#0A0A0A">acts</text>
  <rect x="1292" y="424" width="80" height="22" fill="#E6FF3D"/>
  <text x="1296" y="440" font-size="12" fill="#0A0A0A">export</text>
  <rect x="1378" y="424" width="240" height="22" fill="#ECECE8"/>
  <text x="1382" y="440" font-size="12" fill="#8A8A85">← YAML 导出 + 预览 + 下载</text>

  <line x1="1417" y1="476" x2="1417" y2="494" stroke="#0A0A0A" stroke-width="3"/>

  <!-- Utils -->
  <rect x="1198" y="498" width="438" height="52" fill="#F5F4EF"/>
  <rect x="1198" y="498" width="6" height="52" fill="#E6FF3D"/>
  <text x="1214" y="520" font-size="15" font-weight="bold" fill="#0A0A0A">utils/ — 工具层</text>
  <text x="1214" y="540" font-size="12" fill="#8A8A85">state.py (会话路由) · storage.py (JSON CRUD)</text>
  <text x="1214" y="548" font-size="12" fill="#8A8A85">exporter.py (项目→YAML)</text>

  <!-- Data -->
  <rect x="1198" y="558" width="438" height="30" fill="#0A0A0A"/>
  <text x="1214" y="578" font-size="13" font-weight="bold" fill="#E6FF3D">data/projects.json</text>
  <text x="1370" y="578" font-size="12" fill="#F5F4EF">← 单一 JSON 文件持久化</text>

  <!-- ============================================================ -->
  <!-- SECTION 3: 4-STAGE GENERATION PIPELINE -->
  <!-- ============================================================ -->
  <rect x="24" y="640" width="1632" height="210" fill="#ECECE8"/>
  <rect x="24" y="640" width="1632" height="44" fill="#0A0A0A"/>
  <text x="50" y="668" font-size="20" font-weight="bold" fill="#E6FF3D">4 阶段 LLM 生成流水线 (GenerationOrchestrator.run_v1)</text>

  <!-- Stage boxes + arrows horizontal -->
  <!-- Input -->
  <rect x="44" y="700" width="130" height="60" fill="#F5F4EF"/>
  <text x="56" y="726" font-size="15" font-weight="bold" fill="#0A0A0A">Chapters</text>
  <text x="56" y="748" font-size="12" fill="#8A8A85">上传 + 归一化</text>

  <line x1="174" y1="730" x2="210" y2="730" stroke="#0A0A0A" stroke-width="3" marker-end="url(#arrow)"/>

  <!-- Stage 1 -->
  <rect x="216" y="700" width="200" height="60" fill="#0A0A0A"/>
  <text x="228" y="722" font-size="13" fill="#E6FF3D">阶段 1</text>
  <text x="228" y="742" font-size="15" font-weight="bold" fill="#F5F4EF">NovelReader</text>
  <text x="228" y="756" font-size="11" fill="#8A8A85">角色 · 事件 · 伏笔 · 源引用</text>

  <line x1="416" y1="730" x2="452" y2="730" stroke="#0A0A0A" stroke-width="3" marker-end="url(#arrow)"/>

  <!-- Stage 2 -->
  <rect x="458" y="700" width="200" height="60" fill="#0A0A0A"/>
  <text x="470" y="722" font-size="13" fill="#E6FF3D">阶段 2</text>
  <text x="470" y="742" font-size="15" font-weight="bold" fill="#F5F4EF">StoryOntology</text>
  <text x="470" y="756" font-size="11" fill="#8A8A85">角色关系 · 知识状态 · 因果图</text>

  <line x1="658" y1="730" x2="694" y2="730" stroke="#0A0A0A" stroke-width="3" marker-end="url(#arrow)"/>

  <!-- Stage 3 -->
  <rect x="700" y="700" width="220" height="60" fill="#0A0A0A"/>
  <text x="712" y="722" font-size="13" fill="#E6FF3D">阶段 3</text>
  <text x="712" y="742" font-size="15" font-weight="bold" fill="#F5F4EF">AdaptationPlanner</text>
  <text x="712" y="756" font-size="11" fill="#8A8A85">保留/合并/删除 · 场景布局</text>

  <line x1="920" y1="730" x2="956" y2="730" stroke="#0A0A0A" stroke-width="3" marker-end="url(#arrow)"/>

  <!-- Stage 4 -->
  <rect x="962" y="700" width="230" height="60" fill="#0A0A0A"/>
  <text x="974" y="722" font-size="13" fill="#E6FF3D">阶段 4</text>
  <text x="974" y="742" font-size="15" font-weight="bold" fill="#F5F4EF">ScreenplayWriter</text>
  <text x="974" y="756" font-size="11" fill="#8A8A85">场景 · 动作 · 对白 · 潜台词</text>

  <line x1="1192" y1="730" x2="1228" y2="730" stroke="#0A0A0A" stroke-width="3" marker-end="url(#arrow)"/>

  <!-- Validation -->
  <rect x="1234" y="695" width="170" height="70" fill="#E6FF3D"/>
  <text x="1246" y="720" font-size="14" font-weight="bold" fill="#0A0A0A">Validation</text>
  <text x="1246" y="740" font-size="12" fill="#0A0A0A">SchemaValidator</text>
  <text x="1246" y="756" font-size="12" fill="#0A0A0A">ReferenceValidator</text>

  <line x1="1404" y1="730" x2="1440" y2="730" stroke="#0A0A0A" stroke-width="3" marker-end="url(#arrow)"/>

  <!-- Output -->
  <rect x="1446" y="690" width="190" height="80" fill="#F5F4EF"/>
  <text x="1458" y="714" font-size="15" font-weight="bold" fill="#0A0A0A">Output</text>
  <text x="1458" y="734" font-size="12" fill="#8A8A85">screenplay_json</text>
  <text x="1458" y="750" font-size="12" fill="#8A8A85">screenplay_yaml</text>
  <text x="1458" y="766" font-size="12" fill="#8A8A85">audit_report</text>

  <!-- Artifacts bar below pipeline -->
  <rect x="44" y="780" width="1592" height="26" fill="#F5F4EF"/>
  <text x="56" y="798" font-size="13" fill="#0A0A0A">产物链:</text>
  <rect x="120" y="784" width="130" height="18" fill="#ECECE8"/>
  <text x="130" y="797" font-size="12" fill="#8A8A85">novel_analysis</text>
  <line x1="250" y1="793" x2="266" y2="793" stroke="#8A8A85" stroke-width="1.5" marker-end="url(#arrow)"/>
  <rect x="270" y="784" width="120" height="18" fill="#ECECE8"/>
  <text x="280" y="797" font-size="12" fill="#8A8A85">story_bible</text>
  <line x1="390" y1="793" x2="406" y2="793" stroke="#8A8A85" stroke-width="1.5" marker-end="url(#arrow)"/>
  <rect x="410" y="784" width="130" height="18" fill="#ECECE8"/>
  <text x="420" y="797" font-size="12" fill="#8A8A85">adaptation_plan</text>
  <line x1="540" y1="793" x2="556" y2="793" stroke="#8A8A85" stroke-width="1.5" marker-end="url(#arrow)"/>
  <rect x="560" y="784" width="130" height="18" fill="#ECECE8"/>
  <text x="570" y="797" font-size="12" fill="#8A8A85">screenplay_json</text>
  <line x1="690" y1="793" x2="706" y2="793" stroke="#8A8A85" stroke-width="1.5" marker-end="url(#arrow)"/>
  <rect x="710" y="784" width="130" height="18" fill="#ECECE8"/>
  <text x="720" y="797" font-size="12" fill="#8A8A85">screenplay_yaml</text>
  <line x1="840" y1="793" x2="856" y2="793" stroke="#8A8A85" stroke-width="1.5" marker-end="url(#arrow)"/>
  <rect x="860" y="784" width="110" height="18" fill="#E6FF3D"/>
  <text x="870" y="797" font-size="12" font-weight="bold" fill="#0A0A0A">audit_report</text>

  <!-- Job tracking -->
  <text x="1100" y="798" font-size="13" fill="#8A8A85">异步执行:</text>
  <text x="1200" y="798" font-size="13" fill="#0A0A0A">BackgroundTasks → job_id → 轮询 GET /api/jobs/{id}</text>

  <!-- ============================================================ -->
  <!-- SECTION 4: BOTTOM ROW — Domain Models + Design Principles -->
  <!-- ============================================================ -->

  <!-- COL A: Domain Models -->
  <rect x="24" y="874" width="810" height="200" fill="#ECECE8"/>
  <rect x="24" y="874" width="810" height="42" fill="#0A0A0A"/>
  <text x="48" y="900" font-size="18" font-weight="bold" fill="#E6FF3D">领域模型层 (app/domain/) — 纯 Pydantic, 无基础设施依赖</text>

  <!-- Grid of domain models -->
  <rect x="38" y="930" width="155" height="34" fill="#F5F4EF"/>
  <text x="48" y="952" font-size="14" font-weight="bold" fill="#0A0A0A">common</text>
  <text x="115" y="952" font-size="11" fill="#8A8A85">共享值类型</text>

  <rect x="200" y="930" width="170" height="34" fill="#F5F4EF"/>
  <text x="210" y="952" font-size="14" font-weight="bold" fill="#0A0A0A">source</text>
  <text x="260" y="952" font-size="11" fill="#8A8A85">Chapters/Paragraphs</text>

  <rect x="377" y="930" width="140" height="34" fill="#F5F4EF"/>
  <text x="387" y="952" font-size="14" font-weight="bold" fill="#0A0A0A">story_bible</text>
  <text x="472" y="952" font-size="11" fill="#8A8A85">角色/事件</text>

  <rect x="521" y="930" width="153" height="34" fill="#F5F4EF"/>
  <text x="534" y="952" font-size="14" font-weight="bold" fill="#0A0A0A">adaptation</text>
  <text x="615" y="952" font-size="11" fill="#8A8A85">Config/Plan</text>

  <rect x="686" y="930" width="136" height="34" fill="#E6FF3D"/>
  <text x="696" y="952" font-size="14" font-weight="bold" fill="#0A0A0A">screenplay</text>
  <text x="776" y="952" font-size="11" fill="#0A0A0A">聚合根</text>

  <rect x="38" y="974" width="155" height="34" fill="#F5F4EF"/>
  <text x="48" y="996" font-size="14" font-weight="bold" fill="#0A0A0A">audit</text>
  <text x="85" y="996" font-size="11" fill="#8A8A85">AuditWarning/Report</text>

  <rect x="200" y="974" width="155" height="34" fill="#F5F4EF"/>
  <text x="210" y="996" font-size="14" font-weight="bold" fill="#0A0A0A">artifacts</text>
  <text x="265" y="996" font-size="11" fill="#8A8A85">6种工件类型</text>

  <rect x="362" y="974" width="155" height="34" fill="#F5F4EF"/>
  <text x="372" y="996" font-size="14" font-weight="bold" fill="#0A0A0A">jobs</text>
  <text x="405" y="996" font-size="11" fill="#8A8A85">异步任务状态机</text>

  <rect x="524" y="974" width="155" height="34" fill="#F5F4EF"/>
  <text x="534" y="996" font-size="14" font-weight="bold" fill="#0A0A0A">llm_runs</text>
  <text x="595" y="996" font-size="11" fill="#8A8A85">LLM调用追踪</text>

  <rect x="686" y="974" width="136" height="34" fill="#F5F4EF"/>
  <text x="696" y="996" font-size="14" font-weight="bold" fill="#0A0A0A">project</text>
  <text x="750" y="996" font-size="11" fill="#8A8A85">Project实体</text>

  <!-- Workers note -->
  <rect x="38" y="1020" width="784" height="26" fill="#F5F4EF"/>
  <text x="48" y="1038" font-size="13" fill="#0A0A0A">Workers:</text>
  <text x="115" y="1038" font-size="13" fill="#8A8A85">jobs.py — FastAPI BackgroundTasks 封装, 将 Orchestrator 包装为异步后台任务</text>

  <!-- ============================================================ -->
  <!-- COL B: Design Principles + Data Flow -->
  <!-- ============================================================ -->
  <rect x="858" y="874" width="798" height="200" fill="#ECECE8"/>
  <rect x="858" y="874" width="798" height="42" fill="#0A0A0A"/>
  <text x="880" y="900" font-size="18" font-weight="bold" fill="#E6FF3D">核心设计原则</text>

  <rect x="874" y="930" width="372" height="32" fill="#F5F4EF"/>
  <rect x="874" y="930" width="6" height="32" fill="#E6FF3D"/>
  <text x="890" y="950" font-size="13" fill="#0A0A0A">1. 领域模型作为唯一真实来源 — 纯 Pydantic</text>

  <rect x="874" y="968" width="372" height="32" fill="#F5F4EF"/>
  <rect x="874" y="968" width="6" height="32" fill="#E6FF3D"/>
  <text x="890" y="988" font-size="13" fill="#0A0A0A">2. AI Provider 策略模式 — 实现可互换</text>

  <rect x="874" y="1006" width="372" height="32" fill="#F5F4EF"/>
  <rect x="874" y="1006" width="6" height="32" fill="#E6FF3D"/>
  <text x="890" y="1026" font-size="13" fill="#0A0A0A">3. Skill Wrapper 封装每个 LLM 调用</text>

  <rect x="1258" y="930" width="382" height="32" fill="#F5F4EF"/>
  <rect x="1258" y="930" width="6" height="32" fill="#E6FF3D"/>
  <text x="1270" y="950" font-size="13" fill="#0A0A0A">4. 验证器不调用模型, 导出器不修复内容</text>

  <rect x="1258" y="968" width="382" height="32" fill="#F5F4EF"/>
  <rect x="1258" y="968" width="6" height="32" fill="#E6FF3D"/>
  <text x="1270" y="988" font-size="13" fill="#0A0A0A">5. Fixture 优先于代码, Schema 优先于模型</text>

  <rect x="1258" y="1006" width="382" height="32" fill="#F5F4EF"/>
  <rect x="1258" y="1006" width="6" height="32" fill="#E6FF3D"/>
  <text x="1270" y="1026" font-size="13" fill="#0A0A0A">6. 异步 Fire-and-Forget + Job 轮询</text>

  <!-- Data flow summary -->
  <rect x="874" y="1050" width="766" height="18" fill="#F5F4EF"/>
  <text x="886" y="1064" font-size="12" fill="#8A8A85">用户 → [PUT chapters] → [POST generate] → BackgroundTask → 4-Stage → Validate → YAML → Artifacts</text>

  <!-- ============================================================ -->
  <!-- SECTION 5: BOTTOM FOOTER / API CONTRACT STRIP -->
  <!-- ============================================================ -->
  <rect x="24" y="1098" width="1632" height="36" fill="#0A0A0A"/>
  <text x="50" y="1122" font-size="14" fill="#E6FF3D">API Endpoints:</text>
  <text x="190" y="1122" font-size="13" fill="#F5F4EF">/api/health</text>
  <text x="320" y="1122" font-size="13" fill="#F5F4EF">/api/projects</text>
  <text x="475" y="1122" font-size="13" fill="#F5F4EF">/api/projects/{id}/chapters</text>
  <text x="690" y="1122" font-size="13" fill="#F5F4EF">/api/projects/{id}/generate/*</text>
  <text x="940" y="1122" font-size="13" fill="#F5F4EF">/api/projects/{id}/artifacts</text>
  <text x="1170" y="1122" font-size="13" fill="#F5F4EF">/api/projects/{id}/yaml/*</text>
  <text x="1375" y="1122" font-size="13" fill="#F5F4EF">/api/jobs/{id}</text>

  <!-- Scale bar -->
  <rect x="24" y="1142" width="1632" height="22" fill="#ECECE8"/>
  <text x="50" y="1158" font-size="12" fill="#8A8A85">Python 3.11+ · FastAPI 0.111+ · Pydantic v2 · SQLite · uvicorn · Streamlit · PyYAML · jsonschema (Draft 2020-12) · JSON(内部) / YAML(对外) · windows 11 · 单体仓库 (monorepo)</text>

  <!-- Bottom rule -->
  <rect x="24" y="1172" width="1632" height="4" fill="#E6FF3D"/>
</svg>
